<svg width="70" height="70" viewBox="0 0 70 70" fill="none" xmlns="http://www.w3.org/2000/svg">
<path fill-rule="evenodd" clip-rule="evenodd" d="M37.5 0H32.5V22.1386L24.2067 1.61204L19.5708 3.48507L28.0789 24.5434L12.019 8.48348L8.48351 12.019L23.8762 27.4117L3.92843 18.6963L1.92661 23.2781L23.0337 32.5H0V37.5H23.0336L1.92661 46.7218L3.92843 51.3037L23.8762 42.5883L8.48351 57.981L12.019 61.5163L28.0789 45.4566L19.5708 66.515L24.2067 68.3879L32.5 47.8614V70H37.5V47.8614L45.7933 68.3879L50.429 66.515L41.9212 45.4566L57.981 61.5163L61.5163 57.981L46.1237 42.5883L66.0716 51.3037L68.0732 46.7218L46.9665 37.5H70V32.5H46.9661L68.0732 23.2781L66.0716 18.6963L46.1237 27.4117L61.5163 12.019L57.981 8.48348L41.9212 24.5433L50.429 3.48507L45.7933 1.61204L37.5 22.1386V0Z" fill="#763229"/>
</svg>
